<svg width="460" height="598" viewBox="0 0 460 598" fill="none" xmlns="http://www.w3.org/2000/svg">
<path d="M257.783 538.86C303.355 538.86 340.299 531.125 340.299 521.583C340.299 512.042 303.355 504.307 257.783 504.307C212.211 504.307 175.268 512.042 175.268 521.583C175.268 531.125 212.211 538.86 257.783 538.86Z" stroke="#DA2460" stroke-miterlimit="10"/>
<path opacity="0.8" d="M258.942 570.554C291.347 570.554 317.617 565.226 317.617 558.653C317.617 552.08 291.347 546.752 258.942 546.752C226.537 546.752 200.268 552.08 200.268 558.653C200.268 565.226 226.537 570.554 258.942 570.554Z" stroke="#F28DAC" stroke-miterlimit="10" stroke-linecap="round" stroke-linejoin="round"/>
<path opacity="0.45" d="M260.656 596.779C285.675 596.779 305.957 592.661 305.957 587.581C305.957 582.502 285.675 578.384 260.656 578.384C235.637 578.384 215.354 582.502 215.354 587.581C215.354 592.661 235.637 596.779 260.656 596.779Z" stroke="#F28DAC" stroke-miterlimit="10" stroke-linecap="round" stroke-linejoin="round"/>
<path d="M10.3795 92.1612C28.2689 79.5769 47.5936 89.3337 61.7371 105.243L178.526 221.361C192.704 237.239 189.659 260.543 171.734 273.128C153.845 285.712 127.588 283.009 113.41 267.1L14.5105 141.287C0.331947 125.378 -7.54497 104.746 10.3795 92.1612Z" fill="#F28DAC"/>
<path d="M15.4893 140.386C20.7756 133.488 24.4164 127.802 33.3786 120.034C48.5024 106.952 60.7554 106.082 60.7554 106.082" stroke="#DA2460" stroke-miterlimit="10" stroke-linecap="round" stroke-linejoin="round"/>
<path d="M445.85 453.254C426.351 459.251 406.991 442.752 392.602 423.021L302.49 258.709C293.318 238.916 303.085 216.419 324.23 208.713C345.341 201.007 370.127 210.889 379.299 230.682L452.607 403.942C461.744 423.735 465.35 447.257 445.85 453.254Z" fill="#F28DAC"/>
<path d="M451.662 404.035C445.64 409.442 436.783 414.009 425.23 418.297C408.741 424.419 393.897 421.622 393.897 421.622" stroke="#DA2460" stroke-miterlimit="10" stroke-linecap="round" stroke-linejoin="round"/>
<path d="M376.678 155.269C372.547 197.155 318.143 204.178 252.397 199.082C186.651 193.986 134.453 178.698 138.584 136.781C142.715 94.8955 171.982 39.9283 267.346 47.3235C362.989 54.7499 380.774 113.353 376.678 155.269Z" fill="#DA2460"/>
<path d="M282.469 514.002C264.929 516.923 245.149 514.903 224.179 510.273C203.209 505.643 159.308 481.345 150.976 443.933L117.368 264.365C113.692 244.79 121.814 224.468 138.828 213.779C146.53 208.932 155.702 206.104 165.47 206.104C165.47 206.104 234.437 214.649 251.241 214.649C305.399 214.649 312.996 206.104 336.662 206.104C360.328 206.104 371.531 216.296 380.073 231.304C385.429 240.688 387.004 251.719 385.324 262.346L357.457 439.583C352.346 486.471 309.11 509.589 282.469 514.002Z" fill="#002743"/>
<path d="M336.907 148.713C333.266 178.978 297.312 183.732 254.146 179.63C210.98 175.529 176.952 164.187 180.593 133.923C184.234 103.658 204.714 64.1339 267.344 70.0377C330.115 75.9725 340.548 118.449 336.907 148.713Z" fill="#F28DAC"/>
<path d="M233.316 121.804C233.316 128.267 229.185 133.487 224.073 133.487C218.962 133.487 214.831 128.236 214.831 121.804C214.831 115.341 218.962 110.121 224.073 110.121C229.185 110.121 233.316 115.341 233.316 121.804Z" fill="#002743"/>
<path d="M145.058 410.561C164.943 427.589 198.271 444.43 258.906 447.289C310.859 449.743 338.236 434.735 359.311 419.914" stroke="#F28DAC" stroke-miterlimit="10" stroke-linecap="round" stroke-linejoin="round"/>
<path d="M307.406 132.402C308.61 126.039 305.505 120.272 300.471 119.522C295.438 118.772 290.381 123.322 289.177 129.685C287.973 136.049 291.078 141.816 296.112 142.566C301.146 143.316 306.203 138.766 307.406 132.402Z" fill="#002743"/>
<path d="M276.199 48.1937C282.046 35.7336 290.798 22.7142 305.397 8.54517" stroke="#002743" stroke-miterlimit="10" stroke-linecap="round" stroke-linejoin="round"/>
<path d="M304.419 18.8921C310.297 18.8921 315.062 14.6629 315.062 9.44602C315.062 4.22912 310.297 0 304.419 0C298.541 0 293.776 4.22912 293.776 9.44602C293.776 14.6629 298.541 18.8921 304.419 18.8921Z" fill="#002743"/>
<path d="M234.964 139.982C240.706 148.247 247.918 152.753 254.919 153.685C264.022 154.865 272.073 154.43 280.826 147.191" stroke="#002743" stroke-miterlimit="10" stroke-linecap="round" stroke-linejoin="round"/>
</svg>
