<svg width="927" height="913" viewBox="0 0 927 913" fill="none" xmlns="http://www.w3.org/2000/svg">
<g opacity="0.2">
<circle cx="452.004" cy="456.024" r="177.849" stroke="#00ACB0" stroke-width="136.807"/>
<path d="M462.644 0C466.714 0 470.771 0.0515848 474.816 0.154125C526.339 23.2352 541.372 101.707 475.042 140.075C470.929 139.924 466.795 139.847 462.644 139.847C293.005 139.847 153.837 267.246 139.997 429.412C119.31 415.508 94.327 407.381 67.4229 407.381C42.7154 407.381 19.6276 414.235 0 426.123C15.6559 188.206 216.805 0 462.644 0Z" fill="#00ACB0"/>
<path d="M786.421 456.024C786.421 319.45 697.746 203.1 573.552 158.884C602.841 116.118 608.257 63.8431 593.199 18.3303C785.688 73.7882 926.268 248.758 926.268 456.024C926.268 707.879 718.696 912.048 462.644 912.048C456.886 912.048 451.153 911.945 445.446 911.74C428.452 900.971 417.335 889.815 410.335 879.594C398.931 862.942 396.738 846.437 399.845 831.458C405.712 803.168 430.849 778.432 460.451 772.193C461.181 772.198 461.912 772.2 462.644 772.2C641.461 772.2 786.421 630.643 786.421 456.024Z" fill="#00ACB0"/>
</g>
</svg>
