<svg width="30" height="30" viewBox="0 0 30 30" fill="none" xmlns="http://www.w3.org/2000/svg">
<mask id="path-1-inside-1_129_1493" fill="white">
<ellipse cx="14.6395" cy="15" rx="7.97565" ry="8.1"/>
</mask>
<path d="M10.7994 15C10.7994 13.1209 12.347 11.2842 14.6395 11.2842V34.9157C25.7416 34.9157 34.4309 25.8262 34.4309 15H10.7994ZM14.6395 11.2842C16.932 11.2842 18.4796 13.1209 18.4796 15H-5.15193C-5.15193 25.8262 3.53731 34.9157 14.6395 34.9157V11.2842ZM18.4796 15C18.4796 16.8791 16.932 18.7157 14.6395 18.7157V-4.91575C3.53731 -4.91575 -5.15193 4.17384 -5.15193 15H18.4796ZM14.6395 18.7157C12.347 18.7157 10.7994 16.8791 10.7994 15H34.4309C34.4309 4.17384 25.7416 -4.91575 14.6395 -4.91575V18.7157Z" fill="#00ACB0" mask="url(#path-1-inside-1_129_1493)"/>
<path d="M14.9841 0C15.1159 0 15.2474 0.00169678 15.3784 0.00506963C17.0471 0.764276 17.534 3.34543 15.3857 4.60749C15.2525 4.60251 15.1186 4.6 14.9841 4.6C9.48985 4.6 4.98246 8.79052 4.53424 14.1246C3.86423 13.6673 3.05507 13.4 2.18369 13.4C1.38347 13.4 0.6357 13.6254 0 14.0165C0.507065 6.19065 7.02187 0 14.9841 0Z" fill="#00ACB0"/>
<path d="M25.4706 15C25.4706 10.5077 22.5986 6.68058 18.5762 5.22618C19.5248 3.81948 19.7002 2.09999 19.2126 0.602938C25.4469 2.42712 30 8.18241 30 15C30 23.2843 23.2772 30 14.9841 30C14.7976 30 14.612 29.9966 14.4271 29.9899C13.8767 29.6357 13.5167 29.2687 13.29 28.9325C12.9206 28.3848 12.8496 27.8419 12.9502 27.3492C13.1402 26.4186 13.9544 25.605 14.9131 25.3998C14.9368 25.3999 14.9604 25.4 14.9841 25.4C20.7757 25.4 25.4706 20.7438 25.4706 15Z" fill="#00ACB0"/>
</svg>
